<?xml version="1.0" encoding="UTF-8"?>
<svg id="Layer_1" xmlns="http://www.w3.org/2000/svg" viewBox="0 0 465.13 445.02">
  <defs>
    <style>
      .cls-1 {
        fill: red;
        fill-rule: evenodd;
      }

      .cls-2 {
        fill: #302f2f;
        stroke: #000;
        stroke-miterlimit: 10;
      }
    </style>
  </defs>
  <rect class="cls-2" x=".5" y=".5" width="464.13" height="444.02" rx="41.85" ry="41.85"/>
  <path class="cls-1" d="M237.5,41.26c10.46,0,18.94,8.16,18.94,18.23v18.23c0,10.07-8.48,18.23-18.94,18.23s-18.94-8.16-18.94-18.23v-18.23c0-10.07,8.48-18.23,18.94-18.23Z"/>
  <path class="cls-1" d="M383.44,83.06c7.39,7.12,7.39,18.66,0,25.78l-18.94,18.23c-7.39,7.12-19.38,7.12-26.78,0-7.39-7.12-7.39-18.66,0-25.78l18.94-18.23c7.39-7.12,19.38-7.12,26.78,0Z"/>
  <path class="cls-1" d="M370.05,223.55c0-10.07,8.48-18.23,18.94-18.23h18.94c10.46,0,18.94,8.16,18.94,18.23s-8.48,18.23-18.94,18.23h-18.94c-10.46,0-18.94-8.16-18.94-18.23Z"/>
  <path class="cls-1" d="M48.14,223.55c0-10.07,8.48-18.23,18.94-18.23h18.94c10.46,0,18.94,8.16,18.94,18.23s-8.48,18.23-18.94,18.23h-18.94c-10.46,0-18.94-8.16-18.94-18.23Z"/>
  <path class="cls-1" d="M91.56,83.06c7.39-7.12,19.38-7.12,26.78,0l18.94,18.23c7.39,7.12,7.39,18.66,0,25.78-7.39,7.12-19.38,7.12-26.78,0l-18.94-18.23c-7.39-7.12-7.39-18.66,0-25.78Z"/>
  <path class="cls-1" d="M237.5,114.18c-62.75,0-113.61,48.97-113.61,109.37,0,29.77,12.38,56.8,32.42,76.5,5.07,4.99,7.81,9.57,8.65,13.63l10.02,48.2c5.31,25.56,28.63,43.96,55.7,43.96h13.65c27.08,0,50.39-18.4,55.7-43.96l10.02-48.2c.84-4.06,3.58-8.64,8.65-13.63,20.03-19.7,32.42-46.73,32.42-76.5,0-60.41-50.87-109.37-113.61-109.37ZM218.57,296.47c-10.46,0-18.94,8.16-18.94,18.23s8.48,18.23,18.94,18.23h37.87c10.46,0,18.94-8.16,18.94-18.23s-8.48-18.23-18.94-18.23h-37.87Z"/>
</svg>