<?xml version="1.0" encoding="UTF-8"?>
<svg id="Layer_1" xmlns="http://www.w3.org/2000/svg" viewBox="0 0 465.13 445.02">
  <defs>
    <style>
      .cls-1 {
        fill: #302f2f;
        stroke: #000;
        stroke-miterlimit: 10;
      }

      .cls-2 {
        fill: red;
      }
    </style>
  </defs>
  <rect class="cls-1" x=".5" y=".5" width="464.13" height="444.02" rx="41.85" ry="41.85"/>
  <path class="cls-2" d="M236.32,73.87c-93.17,0-168.7,63.47-168.7,141.78,0,44.04,23.88,83.38,61.37,109.38l-10.48,90.06,75.43-62.17c13.53,2.94,27.74,4.51,42.38,4.51,93.17,0,168.7-63.48,168.7-141.78s-75.53-141.78-168.7-141.78h0ZM163.66,250.73c9.49,0,17.19,8.74,17.19,19.53s-7.7,19.53-17.19,19.53-17.19-8.74-17.19-19.53,7.7-19.53,17.19-19.53ZM236.08,289.78c-9.49,0-17.19-8.74-17.19-19.53s7.7-19.53,17.19-19.53,17.19,8.74,17.19,19.53-7.7,19.53-17.19,19.53h0ZM310.78,289.78c-9.49,0-17.19-8.74-17.19-19.53s7.7-19.53,17.19-19.53,17.19,8.74,17.19,19.53-7.7,19.53-17.19,19.53Z"/>
</svg>