<?xml version="1.0" encoding="UTF-8"?>
<svg id="Layer_1" xmlns="http://www.w3.org/2000/svg" viewBox="0 0 465.13 445.02">
  <defs>
    <style>
      .cls-1 {
        fill: #302f2f;
        stroke: #000;
        stroke-miterlimit: 10;
      }

      .cls-2 {
        fill: red;
      }
    </style>
  </defs>
  <rect class="cls-1" x=".5" y=".5" width="464.13" height="444.02" rx="41.85" ry="41.85"/>
  <rect class="cls-2" x="295.09" y="171.59" width="29.94" height="34.7"/>
  <rect class="cls-2" x="223.43" y="171.59" width="29.94" height="34.7"/>
  <rect class="cls-2" x="151.77" y="171.59" width="29.94" height="34.7"/>
  <polygon class="cls-2" points="108.63 74.96 108.63 113.02 116.58 113.02 124.52 113.02 352.27 113.02 360.22 113.02 368.16 113.02 368.16 74.96 108.63 74.96"/>
  <path class="cls-2" d="M360.22,131.44H108.63v244.35h259.53v-244.35h-7.94ZM169.81,353.08h-28.34v-18.42h28.34v18.42ZM194.43,324.84h-52.97v-18.42h52.97v18.42h0ZM194.43,296.59h-52.97v-18.42h52.97v18.42h0ZM158.79,261.29v-18.42h15.89v18.42h-15.89ZM197.59,224.71h-61.72v-71.54h61.72v71.54ZM240.25,353.08h-28.34v-18.42h28.34v18.42ZM264.88,324.84h-52.97v-18.42h52.97v18.42ZM264.88,296.59h-52.97v-18.42h52.97v18.42ZM230.45,261.29v-18.42h15.89v18.42h-15.89ZM269.25,224.71h-61.72v-71.54h61.72v71.54h0ZM310.7,353.08h-28.34v-18.42h28.34v18.42ZM335.32,324.84h-52.97v-18.42h52.97v18.42ZM335.32,296.59h-52.97v-18.42h52.97v18.42ZM302.11,261.29v-18.42h15.89v18.42h-15.89ZM340.92,224.71h-61.72v-71.54h61.72v71.54Z"/>
</svg>