<?xml version="1.0" encoding="UTF-8"?>
<svg id="Layer_1" xmlns="http://www.w3.org/2000/svg" viewBox="0 0 465.13 445.02">
  <defs>
    <style>
      .cls-1 {
        fill: #302f2f;
        stroke: #000;
        stroke-miterlimit: 10;
      }

      .cls-2 {
        fill: red;
      }
    </style>
  </defs>
  <rect class="cls-1" x=".5" y=".5" width="464.13" height="444.02" rx="41.85" ry="41.85"/>
  <g>
    <path class="cls-2" d="M359.43,297.37h-21.72v-20.46c0-2.11-1.82-3.82-4.06-3.82h-13.37c-2.24,0-4.06,1.71-4.06,3.82v20.46h-21.72c-2.24,0-4.06,1.71-4.06,3.82v12.59c0,2.11,1.82,3.82,4.06,3.82h21.72v20.46c0,2.11,1.82,3.82,4.06,3.82h13.37c2.24,0,4.06-1.71,4.06-3.82v-20.46h21.72c2.24,0,4.06-1.71,4.06-3.82v-12.59c0-2.11-1.82-3.82-4.06-3.82Z"/>
    <path class="cls-2" d="M315.79,199.12l-67.34-63.42c-2.23-2.1-5.81-2.19-8.15-.2-12.06,10.21-75.49,62.06-139.56,80.39l-.69.2c-1.66.48-3.03,1.62-3.72,3.12-.69,1.51-.65,3.22.12,4.69l.32.61s0,.02.01.02c.22.43,9.46,18.6,10.66,44.2.74,15.92-1.71,31.21-7.26,45.5-1.98.15-3.92.93-5.44,2.36-3.38,3.19-3.38,8.35,0,11.53s8.86,3.19,12.24,0c1.95-1.84,2.77-4.34,2.47-6.74l62.08-58.47c1.55-1.46,2.12-3.6,1.48-5.57-2.19-6.8-.24-14.15,5.11-19.19,3.86-3.64,8.99-5.64,14.46-5.64s10.6,2,14.46,5.64c3.86,3.64,5.99,8.47,5.99,13.61s-2.12,9.98-5.99,13.62c-3.86,3.63-8.99,5.63-14.45,5.64-2.02,0-4.02-.28-5.93-.82-2.1-.6-4.37-.06-5.91,1.39l-62.08,58.47c-2.55-.29-5.21.48-7.16,2.32-3.38,3.18-3.38,8.35,0,11.53,3.38,3.18,8.87,3.19,12.25,0,1.52-1.43,2.35-3.26,2.5-5.12,13.38-4.61,27.61-6.96,42.33-6.96,1.85,0,3.74.04,5.62.11,27.26,1.06,47.15,9.99,47.33,10.07l.63.29c.82.38,1.72.57,2.61.57.8,0,1.61-.15,2.36-.46,1.59-.65,2.81-1.93,3.31-3.5l.21-.65c19.46-60.35,74.52-120.08,85.36-131.44,2.1-2.21,2.01-5.58-.22-7.68Z"/>
    <path class="cls-2" d="M366.43,152.86l-68.86-64.85c-1.11-1.05-2.62-1.64-4.19-1.63-1.57,0-3.08.59-4.19,1.63l-29.46,27.75c-2.32,2.18-2.32,5.72,0,7.9l68.86,64.85c1.11,1.05,2.62,1.64,4.19,1.64s3.08-.59,4.19-1.64l29.46-27.75c2.31-2.18,2.31-5.72,0-7.9Z"/>
  </g>
</svg>