<?xml version="1.0" encoding="UTF-8"?>
<svg id="Layer_1" xmlns="http://www.w3.org/2000/svg" viewBox="0 0 465.13 445.02">
  <defs>
    <style>
      .cls-1 {
        fill: #302f2f;
        stroke: #000;
        stroke-miterlimit: 10;
      }

      .cls-2 {
        fill: red;
      }
    </style>
  </defs>
  <rect class="cls-1" x=".5" y=".5" width="464.13" height="444.02" rx="41.85" ry="41.85"/>
  <g>
    <path class="cls-2" d="M383.56,111.91h-68.16c-4.7,0-8.52,3.63-8.52,8.1v5.2c0,4.47,3.82,8.1,8.52,8.1h68.16c4.7,0,8.52-3.63,8.52-8.1v-5.2c0-4.48-3.82-8.1-8.52-8.1Z"/>
    <path class="cls-2" d="M250.11,237l63.09-25.89c4.9-2.01,7.96-6.7,7.7-11.76-.27-5.06-3.81-9.44-8.89-10.98l-206.78-62.63c-4.55-1.38-9.54-.23-12.91,2.99-3.38,3.21-4.59,7.95-3.14,12.28l65.86,196.65c1.62,4.83,6.22,8.2,11.54,8.45,5.32.25,10.25-2.67,12.37-7.32l27.22-60,86.64,82.39c2.4,2.28,5.65,3.56,9.04,3.56s6.64-1.28,9.04-3.56l25.87-24.61c4.99-4.75,4.99-12.44,0-17.19l-86.64-82.39Z"/>
  </g>
</svg>