<?xml version="1.0" encoding="UTF-8"?>
<svg id="Layer_1" xmlns="http://www.w3.org/2000/svg" viewBox="0 0 465.13 445.02">
  <defs>
    <style>
      .cls-1 {
        fill: #302f2f;
        stroke: #000;
        stroke-miterlimit: 10;
      }

      .cls-2 {
        fill: red;
      }
    </style>
  </defs>
  <rect class="cls-1" x=".5" y=".5" width="464.13" height="444.02" rx="41.85" ry="41.85"/>
  <g id="layer1">
    <path id="rect959" class="cls-2" d="M61.03,109.5c-6.72,0-12.16,4.55-12.16,10.17v203.38c0,5.62,5.45,10.17,12.16,10.17h340.62c6.72,0,12.16-4.55,12.16-10.17V119.67c0-5.62-5.45-10.17-12.16-10.17H61.03ZM231.34,292.54c6.72,0,12.16,4.55,12.16,10.17s-5.45,10.17-12.16,10.17-12.16-4.55-12.16-10.17,5.45-10.17,12.16-10.17ZM219.18,343.38v10.19h-37.71c-16.24.7-14.98,21.06,1.26,20.36h97.25c16.24,0,16.24-20.36,0-20.36h-36.47v-10.19h-24.33Z"/>
  </g>
</svg>